<svg width="258" height="56" viewBox="0 0 258 56" fill="none" xmlns="http://www.w3.org/2000/svg">
<path fill-rule="evenodd" clip-rule="evenodd" d="M47.3176 6.03548V1.68548H71.0076V25.4255H47.3676V16.9055C45.4279 24.7823 42.4413 25.6888 41.7579 25.8962C41.7472 25.8995 41.7371 25.9026 41.7276 25.9055C41.7066 25.9119 41.6845 25.9189 41.6609 25.9263C40.9861 26.1385 39.1612 26.7123 32.3976 24.9055C28.1476 23.7655 25.9376 22.4055 24.7676 21.2355C23.1011 23.6698 20.6867 25.4948 17.8901 26.434C15.0935 27.3732 12.067 27.3754 9.26904 26.4404C6.47104 25.5054 4.05395 23.684 2.38387 21.2521C0.713781 18.8203 -0.118324 15.9104 0.0135761 12.9633C0.145476 10.0161 1.2342 7.19225 3.11485 4.91931C4.99549 2.64638 7.56562 1.04821 10.436 0.366878C13.3063 -0.314459 16.3205 -0.0418545 19.022 1.1434C21.7235 2.32866 23.9652 4.36201 25.4076 6.93548C26.7676 3.35548 28.3776 1.61548 30.1076 1.06548C31.0676 0.775482 33.4176 0.475482 39.8676 2.20548C44.5076 3.44548 46.4476 5.03548 47.3176 6.03548ZM59.1176 8.12548L53.4776 17.9855L64.8376 17.9655L59.1176 8.12548ZM31.7676 17.6855H40.0376L40.0776 9.36548H31.7676V17.6855ZM10.8492 17.5796C11.6514 18.1135 12.594 18.3975 13.5576 18.3955C14.8474 18.3928 16.0836 17.8786 16.9947 16.9656C17.9059 16.0525 18.4176 14.8154 18.4176 13.5255C18.4176 12.5619 18.1317 11.6199 17.5961 10.8188C17.0606 10.0177 16.2994 9.39354 15.4089 9.02524C14.5185 8.65693 13.5388 8.56108 12.5938 8.7498C11.6488 8.93852 10.7811 9.40334 10.1004 10.0854C9.41974 10.7675 8.95671 11.6362 8.76993 12.5815C8.58315 13.5269 8.68102 14.5064 9.05115 15.3961C9.42129 16.2858 10.047 17.0457 10.8492 17.5796Z" fill="#D9D9D9"/>
<path d="M152.273 13.7111C152.273 18.5733 156.284 20.8394 159.998 21.0682C161.343 21.1464 162.707 21.1154 163.763 21.0913C164.206 21.0812 164.596 21.0723 164.907 21.0733L164.922 24.7998C164.922 24.7998 163.232 25.0034 159.995 25.0034C156.667 25.0034 153.499 24.2093 151.16 22.1433C149.073 20.2994 147.46 17.6984 147.46 13.7111C147.46 9.72387 149.073 6.79314 151.16 4.94251C153.492 2.87653 156.913 2 160.241 2C163.478 2 164.916 2.29947 164.916 2.29947V6.16897C164.689 6.15728 164.45 6.13873 164.19 6.11855C163.218 6.04294 161.953 5.9446 159.914 6.09999C156.203 6.38264 152.273 8.84902 152.273 13.7111Z" fill="#D9D9D9"/>
<path fill-rule="evenodd" clip-rule="evenodd" d="M114.253 24.9899H119.162C119.204 24.9895 119.245 24.9753 119.278 24.9495C119.312 24.9237 119.336 24.8877 119.347 24.8469L125.765 2.33648C125.773 2.30802 125.774 2.27816 125.769 2.24922C125.763 2.22027 125.751 2.19302 125.733 2.16958C125.715 2.14614 125.692 2.12715 125.665 2.11408C125.639 2.10101 125.61 2.09421 125.58 2.09421H121.143C121.099 2.09433 121.058 2.10876 121.024 2.13525C120.989 2.16173 120.965 2.19878 120.954 2.24058C120.924 2.392 117.52 15.9016 116.696 19.1116C115.707 15.7553 112.345 4.31191 111.807 2.47943L111.734 2.23217C111.721 2.19235 111.697 2.15752 111.663 2.13273C111.63 2.10793 111.589 2.09444 111.547 2.09421H106.225C106.183 2.09427 106.143 2.10772 106.11 2.13257C106.076 2.15742 106.052 2.19234 106.04 2.23217L105.967 2.47943C105.429 4.31191 102.067 15.7553 101.077 19.1116C100.253 15.9016 96.8565 2.392 96.8195 2.24058C96.8087 2.19878 96.7844 2.16173 96.7503 2.13525C96.7162 2.10876 96.6743 2.09433 96.6312 2.09421H92.1933C92.1636 2.09395 92.1342 2.10048 92.1074 2.11331C92.0806 2.12613 92.0571 2.14492 92.0386 2.16824C92.0193 2.19117 92.0056 2.2184 91.9989 2.24767C91.9922 2.27693 91.9925 2.30738 92 2.33648L98.4272 24.8503C98.4388 24.8904 98.4631 24.9257 98.4964 24.9509C98.5298 24.976 98.5704 24.9897 98.6121 24.9899H103.521C103.563 24.9897 103.603 24.976 103.637 24.9509C103.67 24.9257 103.694 24.8904 103.706 24.8503L108.887 6.68042L114.066 24.8503C114.078 24.8905 114.103 24.9259 114.137 24.951C114.17 24.9762 114.211 24.9898 114.253 24.9899ZM119.015 24.603H114.399L109.072 5.92839C109.06 5.88806 109.036 5.85261 109.002 5.82738C108.969 5.80215 108.928 5.78851 108.886 5.78851C108.844 5.78851 108.803 5.80215 108.77 5.82738C108.736 5.85261 108.712 5.88806 108.7 5.92839L103.375 24.603H98.7584L92.4422 2.48116H96.4781C96.9238 4.25441 100.726 19.3825 100.877 19.8872C100.889 19.9272 100.914 19.9624 100.947 19.9875C100.98 20.0126 101.021 20.0264 101.062 20.0268C101.104 20.0262 101.145 20.0124 101.178 19.9873C101.212 19.9623 101.237 19.9272 101.249 19.8872C101.734 18.2536 104.379 9.25343 105.683 4.81649L106.369 2.48116H111.403C111.857 4.01887 115.911 17.8246 116.516 19.8872C116.528 19.9272 116.553 19.9624 116.586 19.9875C116.619 20.0126 116.66 20.0264 116.701 20.0268C116.743 20.0265 116.784 20.0128 116.818 19.9877C116.851 19.9625 116.876 19.9273 116.888 19.8872C117.045 19.3758 120.847 4.25441 121.287 2.48116H125.323L119.015 24.603Z" fill="#D9D9D9"/>
<path d="M25.306 43.648V55.328H26.874V48.864C27.578 48.5227 28.2554 48.352 28.906 48.352C29.5034 48.352 29.898 48.448 30.09 48.64C30.2927 48.8213 30.394 49.1467 30.394 49.616V55.328H31.978V49.248C31.978 48.4693 31.786 47.904 31.402 47.552C31.018 47.1893 30.426 47.008 29.626 47.008C28.6447 47.008 27.754 47.2853 26.954 47.84H26.874V43.648H25.306Z" fill="#D9D9D9"/>
<path fill-rule="evenodd" clip-rule="evenodd" d="M134.725 54.512C135.376 55.152 136.16 55.472 137.077 55.472C138.101 55.472 138.88 55.2053 139.413 54.672H139.493L139.637 55.328H140.981V43.648H139.397V47.504C138.832 47.1733 138.154 47.008 137.365 47.008C136.266 47.008 135.386 47.3653 134.725 48.08C134.074 48.784 133.749 49.856 133.749 51.296V51.504C133.749 52.8693 134.074 53.872 134.725 54.512ZM139.397 53.616C138.864 54.0213 138.272 54.224 137.621 54.224C136.896 54.224 136.336 54.016 135.941 53.6C135.557 53.1733 135.365 52.4533 135.365 51.44V51.104C135.365 50.1013 135.552 49.3867 135.925 48.96C136.309 48.5333 136.869 48.32 137.605 48.32C138.448 48.32 139.045 48.4693 139.397 48.768V53.616Z" fill="#D9D9D9"/>
<path d="M207.4 55.328V43.648H208.968V47.84H209.048C209.848 47.2853 210.738 47.008 211.72 47.008C212.52 47.008 213.112 47.1893 213.496 47.552C213.88 47.904 214.072 48.4693 214.072 49.248V55.328H212.488V49.616C212.488 49.1467 212.386 48.8213 212.184 48.64C211.992 48.448 211.597 48.352 211 48.352C210.349 48.352 209.672 48.5227 208.968 48.864V55.328H207.4Z" fill="#D9D9D9"/>
<path fill-rule="evenodd" clip-rule="evenodd" d="M223.003 55.52C221.766 55.52 220.742 55.376 219.931 55.088V43.648H221.499V47.696H221.579C222.326 47.2373 223.147 47.008 224.043 47.008C224.448 47.008 224.827 47.0773 225.179 47.216C225.531 47.344 225.862 47.552 226.171 47.84C226.48 48.128 226.726 48.544 226.907 49.088C227.088 49.6213 227.179 50.2507 227.179 50.976V51.2C227.179 52.5867 226.822 53.6533 226.107 54.4C225.403 55.1467 224.368 55.52 223.003 55.52ZM223.115 54.256C224.726 54.256 225.531 53.3173 225.531 51.44V51.104C225.531 50.08 225.355 49.3653 225.003 48.96C224.651 48.544 224.075 48.336 223.275 48.336C222.688 48.336 222.096 48.48 221.499 48.768V53.984C221.979 54.1653 222.518 54.256 223.115 54.256Z" fill="#D9D9D9"/>
<path d="M228.87 47.168V55.328H230.438V47.168H228.87Z" fill="#D9D9D9"/>
<path d="M228.854 44.112V45.648H230.454V44.112H228.854Z" fill="#D9D9D9"/>
<path d="M238.37 47.168V55.328H239.938V47.168H238.37Z" fill="#D9D9D9"/>
<path d="M238.354 44.112V45.648H239.954V44.112H238.354Z" fill="#D9D9D9"/>
<path fill-rule="evenodd" clip-rule="evenodd" d="M245.431 55.472C244.225 55.472 243.292 55.12 242.631 54.416C241.969 53.7013 241.639 52.704 241.639 51.424V51.152C241.639 49.872 241.985 48.864 242.679 48.128C243.372 47.3813 244.295 47.008 245.447 47.008C246.631 47.008 247.553 47.3707 248.215 48.096C248.876 48.8107 249.207 49.8133 249.207 51.104V51.344C249.207 52.624 248.86 53.632 248.167 54.368C247.473 55.104 246.561 55.472 245.431 55.472ZM245.447 54.24C246.119 54.24 246.636 54.0053 246.999 53.536C247.372 53.0667 247.559 52.3893 247.559 51.504V51.072C247.559 49.2053 246.844 48.272 245.415 48.272C244.721 48.272 244.188 48.5067 243.815 48.976C243.441 49.4453 243.255 50.1227 243.255 51.008V51.44C243.255 53.3067 243.985 54.24 245.447 54.24Z" fill="#D9D9D9"/>
<path d="M250.822 55.328V47.168H252.342V47.872H252.406C253.227 47.296 254.139 47.008 255.142 47.008C255.942 47.008 256.534 47.1893 256.918 47.552C257.302 47.904 257.494 48.4693 257.494 49.248V55.328H255.91V49.616C255.91 49.1467 255.808 48.8213 255.606 48.64C255.414 48.448 255.019 48.352 254.422 48.352C253.771 48.352 253.094 48.5227 252.39 48.864V55.328H250.822Z" fill="#D9D9D9"/>
<path d="M235.323 55.408C233.819 55.408 233.067 54.7253 233.067 53.36V48.432H231.915V47.168H233.067V45.248H234.651V47.168H236.619V48.432H234.651V53.136C234.651 53.5093 234.731 53.7707 234.891 53.92C235.051 54.0693 235.344 54.144 235.771 54.144C236.016 54.144 236.352 54.112 236.779 54.048V55.104C236.309 55.3067 235.824 55.408 235.323 55.408Z" fill="#D9D9D9"/>
<path d="M216.182 47.168V55.328H217.75V47.168H216.182Z" fill="#D9D9D9"/>
<path d="M216.166 44.112V45.648H217.766V44.112H216.166Z" fill="#D9D9D9"/>
<path d="M201.414 51.168L198.694 55.328H200.39L202.326 52.256L204.214 55.328H206.086L203.398 51.152L205.862 47.168H204.198L202.502 50.096L200.678 47.168H198.806L201.414 51.168Z" fill="#D9D9D9"/>
<path d="M190.811 55.328V44.368H197.467V45.744H192.459V49.008H196.347V50.368H192.459V53.952H197.531V55.328H190.811Z" fill="#D9D9D9"/>
<path d="M177.65 47.168V55.328H179.218V48.864C179.922 48.5227 180.599 48.352 181.25 48.352C181.847 48.352 182.242 48.448 182.434 48.64C182.636 48.8213 182.738 49.1467 182.738 49.616V55.328H184.322V49.248C184.322 48.4693 184.13 47.904 183.746 47.552C183.362 47.1893 182.77 47.008 181.97 47.008C180.967 47.008 180.055 47.296 179.234 47.872H179.17V47.168H177.65Z" fill="#D9D9D9"/>
<path fill-rule="evenodd" clip-rule="evenodd" d="M172.259 55.472C171.053 55.472 170.12 55.12 169.459 54.416C168.797 53.7013 168.467 52.704 168.467 51.424V51.152C168.467 49.872 168.813 48.864 169.507 48.128C170.2 47.3813 171.123 47.008 172.275 47.008C173.459 47.008 174.381 47.3707 175.043 48.096C175.704 48.8107 176.035 49.8133 176.035 51.104V51.344C176.035 52.624 175.688 53.632 174.995 54.368C174.301 55.104 173.389 55.472 172.259 55.472ZM172.275 54.24C172.947 54.24 173.464 54.0053 173.827 53.536C174.2 53.0667 174.387 52.3893 174.387 51.504V51.072C174.387 49.2053 173.672 48.272 172.243 48.272C171.549 48.272 171.016 48.5067 170.643 48.976C170.269 49.4453 170.083 50.1227 170.083 51.008V51.44C170.083 53.3067 170.813 54.24 172.275 54.24Z" fill="#D9D9D9"/>
<path d="M165.198 47.168V55.328H166.766V47.168H165.198Z" fill="#D9D9D9"/>
<path d="M165.182 44.112V45.648H166.782V44.112H165.182Z" fill="#D9D9D9"/>
<path d="M162.151 55.408C160.647 55.408 159.895 54.7253 159.895 53.36V48.432H158.743V47.168H159.895V45.248H161.479V47.168H163.447V48.432H161.479V53.136C161.479 53.5093 161.559 53.7707 161.719 53.92C161.879 54.0693 162.172 54.144 162.599 54.144C162.844 54.144 163.18 54.112 163.607 54.048V55.104C163.137 55.3067 162.652 55.408 162.151 55.408Z" fill="#D9D9D9"/>
<path fill-rule="evenodd" clip-rule="evenodd" d="M151.904 54.896C152.363 55.28 152.976 55.472 153.744 55.472C154.704 55.472 155.408 55.1947 155.856 54.64H155.952L156.096 55.328H157.392V49.424C157.392 47.8133 156.422 47.008 154.48 47.008C153.52 47.008 152.656 47.1627 151.888 47.472V48.576C152.592 48.416 153.248 48.336 153.856 48.336C154.603 48.336 155.115 48.4373 155.392 48.64C155.67 48.832 155.808 49.2267 155.808 49.824V50.528L153.76 50.768C152.064 50.992 151.216 51.7867 151.216 53.152C151.216 53.92 151.446 54.5013 151.904 54.896ZM155.808 53.792C155.435 54.144 154.886 54.32 154.16 54.32C153.744 54.32 153.414 54.2187 153.168 54.016C152.934 53.8027 152.816 53.4933 152.816 53.088C152.816 52.672 152.918 52.368 153.12 52.176C153.334 51.9733 153.664 51.8453 154.112 51.792L155.808 51.616V53.792Z" fill="#D9D9D9"/>
<path d="M145.504 55.472C144.693 55.472 144.074 55.2747 143.648 54.88C143.232 54.4747 143.024 53.8773 143.024 53.088V47.168H144.608V52.816C144.608 53.3067 144.709 53.6533 144.912 53.856C145.114 54.048 145.488 54.144 146.032 54.144C146.597 54.144 147.264 53.968 148.032 53.616V47.168H149.6V55.328H148.256L148.096 54.624H148.016C147.226 55.1893 146.389 55.472 145.504 55.472Z" fill="#D9D9D9"/>
<path fill-rule="evenodd" clip-rule="evenodd" d="M128.479 55.472C127.711 55.472 127.097 55.28 126.639 54.896C126.18 54.5013 125.951 53.92 125.951 53.152C125.951 51.7867 126.799 50.992 128.495 50.768L130.543 50.528V49.824C130.543 49.2267 130.404 48.832 130.127 48.64C129.849 48.4373 129.337 48.336 128.591 48.336C127.983 48.336 127.327 48.416 126.623 48.576V47.472C127.391 47.1627 128.255 47.008 129.215 47.008C131.156 47.008 132.127 47.8133 132.127 49.424V55.328H130.831L130.687 54.64H130.591C130.143 55.1947 129.439 55.472 128.479 55.472ZM128.895 54.32C129.62 54.32 130.169 54.144 130.543 53.792V51.616L128.847 51.792C128.399 51.8453 128.068 51.9733 127.855 52.176C127.652 52.368 127.551 52.672 127.551 53.088C127.551 53.4933 127.668 53.8027 127.903 54.016C128.148 54.2187 128.479 54.32 128.895 54.32Z" fill="#D9D9D9"/>
<path d="M120.806 47.168V55.328H122.374V49.088C122.971 48.6933 123.665 48.496 124.454 48.496C124.667 48.496 124.881 48.512 125.094 48.544V47.136C125.019 47.0933 124.849 47.072 124.582 47.072C124.166 47.072 123.761 47.168 123.366 47.36C122.971 47.552 122.646 47.792 122.39 48.08H122.326V47.168H120.806Z" fill="#D9D9D9"/>
<path d="M115.324 55.504C113.692 55.504 112.423 55.0613 111.516 54.176C110.61 53.2907 110.156 51.9253 110.156 50.08V49.76C110.156 48.7467 110.295 47.872 110.572 47.136C110.86 46.3893 111.255 45.808 111.756 45.392C112.268 44.976 112.828 44.672 113.436 44.48C114.044 44.2773 114.711 44.176 115.436 44.176C116.546 44.176 117.527 44.3947 118.38 44.832V46.208C117.356 45.7707 116.364 45.552 115.404 45.552C114.178 45.552 113.287 45.9253 112.732 46.672C112.188 47.4187 111.916 48.3787 111.916 49.552V50.064C111.916 51.376 112.167 52.384 112.668 53.088C113.17 53.792 114.06 54.144 115.34 54.144C116.119 54.144 116.732 54.0533 117.18 53.872V51.184H115.004V49.872H118.828V54.848C117.772 55.2853 116.604 55.504 115.324 55.504Z" fill="#D9D9D9"/>
<path fill-rule="evenodd" clip-rule="evenodd" d="M95.9675 44.368V55.328H99.4235C101.152 55.328 102.442 54.8587 103.296 53.92C104.16 52.9813 104.592 51.632 104.592 49.872V49.536C104.592 47.808 104.144 46.5173 103.248 45.664C102.362 44.8 101.077 44.368 99.3915 44.368H95.9675ZM99.4555 53.952H97.6155V45.744H99.2635C100.458 45.744 101.349 46.032 101.936 46.608C102.522 47.1733 102.816 48.1493 102.816 49.536V50.08C102.816 51.4453 102.544 52.432 102 53.04C101.466 53.648 100.618 53.952 99.4555 53.952Z" fill="#D9D9D9"/>
<path d="M91.0673 55.504C89.5419 55.504 88.3473 55.04 87.4833 54.112C86.63 53.184 86.2033 51.8133 86.2033 50V49.616C86.2033 48.656 86.3313 47.8187 86.5873 47.104C86.854 46.3893 87.222 45.824 87.6913 45.408C88.1713 44.992 88.7046 44.6827 89.2913 44.48C89.8886 44.2773 90.5499 44.176 91.2753 44.176C92.3419 44.176 93.254 44.3733 94.0113 44.768V46.112C92.9873 45.7387 92.0806 45.552 91.2913 45.552C90.2673 45.552 89.4566 45.8667 88.8593 46.496C88.2726 47.1253 87.9793 48.0907 87.9793 49.392V49.984C87.9793 52.7467 89.0993 54.128 91.3393 54.128C92.2673 54.128 93.2006 53.9093 94.1393 53.472V54.816C93.3286 55.2747 92.3046 55.504 91.0673 55.504Z" fill="#D9D9D9"/>
<path d="M75.8799 44.368L79.7999 55.328H81.3839L85.3039 44.368H83.7359L80.6959 53.168H80.6479L77.5919 44.368H75.8799Z" fill="#D9D9D9"/>
<path d="M69.2442 54.544C68.5828 55.1947 67.5695 55.52 66.2042 55.52C64.8388 55.52 63.7988 55.1893 63.0842 54.528C62.3695 53.856 62.0122 52.848 62.0122 51.504V44.368H63.7082V51.408C63.7082 52.4533 63.9162 53.1893 64.3322 53.616C64.7482 54.0427 65.3935 54.256 66.2682 54.256C67.1322 54.256 67.7561 54.048 68.1402 53.632C68.5348 53.2053 68.7322 52.4587 68.7322 51.392V44.368H70.2362V51.456C70.2362 52.8533 69.9055 53.8827 69.2442 54.544Z" fill="#D9D9D9"/>
<path d="M54.4195 49.744L58.6435 55.328H60.5795L56.2915 49.584L60.3395 44.368H58.6115L54.4195 49.744Z" fill="#D9D9D9"/>
<path d="M52.4675 44.368V55.328H54.1155V44.368H52.4675Z" fill="#D9D9D9"/>
<path d="M40.2755 55.328L37.5235 44.368H39.2035L41.1715 52.832H41.2195L43.6035 44.368H44.9795L47.3155 52.832H47.3475L49.3475 44.368H50.8515L48.1315 55.328H46.5315L44.2595 47.024H44.2115L41.8755 55.328H40.2755Z" fill="#D9D9D9"/>
<path d="M22.3069 55.408C20.8029 55.408 20.0509 54.7253 20.0509 53.36V48.432H18.8989V47.168H20.0509V45.248H21.6349V47.168H23.6029V48.432H21.6349V53.136C21.6349 53.5093 21.7149 53.7707 21.8749 53.92C22.0349 54.0693 22.3282 54.144 22.7549 54.144C23.0002 54.144 23.3362 54.112 23.7629 54.048V55.104C23.2936 55.3067 22.8082 55.408 22.3069 55.408Z" fill="#D9D9D9"/>
<path fill-rule="evenodd" clip-rule="evenodd" d="M10.9479 54.736C11.6519 55.2693 12.6119 55.536 13.8279 55.536C15.0546 55.536 16.0252 55.2427 16.7399 54.656C17.4546 54.0693 17.8119 53.3227 17.8119 52.416C17.8119 51.1467 16.9799 50.208 15.3159 49.6C16.6919 48.9387 17.3799 48.0747 17.3799 47.008C17.3799 46.176 17.0599 45.52 16.4199 45.04C15.7799 44.56 14.9106 44.32 13.8119 44.32C12.7239 44.32 11.8492 44.5813 11.1879 45.104C10.5372 45.616 10.2119 46.288 10.2119 47.12C10.2119 48.304 10.8839 49.1787 12.2279 49.744C11.5666 50 11.0119 50.3787 10.5639 50.88C10.1266 51.3707 9.90791 51.9413 9.90791 52.592C9.90791 53.488 10.2546 54.2027 10.9479 54.736ZM15.4439 53.792C15.0279 54.112 14.4839 54.272 13.8119 54.272C13.1186 54.272 12.5639 54.112 12.1479 53.792C11.7319 53.4613 11.5239 53.0187 11.5239 52.464C11.5239 51.9733 11.7159 51.5413 12.0999 51.168C12.4839 50.784 12.9586 50.5013 13.5239 50.32C14.4306 50.576 15.0812 50.8693 15.4759 51.2C15.8812 51.52 16.0839 51.968 16.0839 52.544C16.0839 53.056 15.8706 53.472 15.4439 53.792ZM15.7639 47.104C15.7639 47.9147 15.1986 48.5653 14.0679 49.056C12.6386 48.6933 11.9239 48.032 11.9239 47.072C11.9239 46.6027 12.0946 46.24 12.4359 45.984C12.7772 45.7173 13.2412 45.584 13.8279 45.584C14.4466 45.584 14.9212 45.728 15.2519 46.016C15.5932 46.2933 15.7639 46.656 15.7639 47.104Z" fill="#D9D9D9"/>
<path fill-rule="evenodd" clip-rule="evenodd" d="M5.53603 55.408V53.184H0.608032V52.128L5.90403 44.4H7.12003V51.904H8.81603V53.184H7.12003V55.408H5.53603ZM2.32003 51.904H5.55203V47.168L2.32003 51.904Z" fill="#D9D9D9"/>
<path d="M173.182 2.2961H168.286V24.7981H183.516V21.1507H173.182V2.2961Z" fill="#D9D9D9"/>
<path d="M186.913 2.2961H191.808V24.7998H186.913V2.2961Z" fill="#D9D9D9"/>
<path fill-rule="evenodd" clip-rule="evenodd" d="M205.744 2.2961H195.79V24.7981H200.686V15.2371H205.88C211.236 15.2371 214.273 13.3191 214.273 8.74808C214.273 3.40648 208.51 2.2961 205.744 2.2961ZM209.309 8.74808C209.309 10.6997 208.483 11.5896 205.386 11.5896H200.677V5.97381H205.175C208.598 5.97381 209.309 7.38366 209.309 8.74808Z" fill="#D9D9D9"/>
<path d="M133.192 15.2068V21.1507H144.474V24.7981H127.941V2.2961H144.504V5.94353H133.192V11.5896H144.492V15.2068H133.192Z" fill="#D9D9D9"/>
<path d="M242.688 21.1507V15.2068H253.987V11.5896H242.688V5.94353H254V2.2961H237.438V24.7981H253.968V21.1507H242.688Z" fill="#D9D9D9"/>
<path d="M232.855 13.7111C231.659 12.658 229.894 11.9934 227.608 11.7394L225.49 11.4719C222.567 11.1354 221.563 10.4271 221.546 8.74808C221.524 6.7393 223.189 5.94353 226.399 5.94353H233.235L233.215 2.28769H225.908C221.351 2.28769 216.479 3.72109 216.479 8.74471C216.479 10.9318 217.292 12.6142 218.859 13.7044C219.905 14.4497 221.285 14.9157 222.999 15.1227L225.286 15.4204C228.515 15.7569 229.635 16.5981 229.635 18.1678C229.635 20.1715 228.078 21.1591 225.046 21.1591H217.145V24.7964H216.809C217.821 24.7964 218.99 24.8007 220.25 24.8053C221.726 24.8107 223.328 24.8166 224.951 24.8166C227.798 24.8166 230.025 24.5542 231.762 23.4707C233.73 22.2493 234.725 20.4609 234.725 18.1611C234.725 16.2902 234.098 14.7946 232.855 13.7111Z" fill="#D9D9D9"/>
</svg>
