<svg width="230" height="34" viewBox="0 0 230 34" fill="none" xmlns="http://www.w3.org/2000/svg">
<path d="M85.6658 17.2572C85.6658 24.086 91.3198 27.2689 96.5566 27.5902C98.4526 27.7 100.375 27.6564 101.863 27.6226C102.489 27.6084 103.038 27.5959 103.477 27.5973L103.498 32.8311C103.498 32.8311 101.115 33.1171 96.5519 33.1171C91.8603 33.1171 87.394 32.0018 84.0964 29.1001C81.1544 26.5104 78.8809 22.8573 78.8809 17.2572C78.8809 11.6571 81.1544 7.5409 84.0964 4.94169C87.3845 2.04004 92.2065 0.80896 96.898 0.80896C101.462 0.80896 103.488 1.22956 103.488 1.22956V6.66426C103.168 6.64784 102.832 6.62178 102.466 6.59345C101.095 6.48724 99.3126 6.34913 96.4381 6.56738C91.206 6.96435 85.6658 10.4284 85.6658 17.2572Z" fill="white"/>
<path fill-rule="evenodd" clip-rule="evenodd" d="M32.0673 33.0982H38.9873C39.0468 33.0976 39.1045 33.0777 39.1516 33.0414C39.1987 33.0052 39.2325 32.9546 39.2481 32.8973L48.2969 1.28154C48.3078 1.24158 48.3094 1.19964 48.3014 1.15898C48.2934 1.11833 48.2762 1.08005 48.2509 1.04714C48.2257 1.01422 48.1932 0.987541 48.1559 0.969182C48.1187 0.950824 48.0777 0.941277 48.0361 0.941283H41.7799C41.7191 0.941449 41.66 0.961717 41.612 0.998916C41.5639 1.03611 41.5296 1.08814 41.5144 1.14686C41.4717 1.35952 36.6735 20.3337 35.5119 24.8421C34.1165 20.1283 29.3773 4.05603 28.6184 1.48231L28.516 1.13504C28.4984 1.07911 28.4635 1.0302 28.4162 0.995375C28.3689 0.960547 28.3117 0.941605 28.2529 0.941283H20.7497C20.6911 0.941366 20.6341 0.960256 20.5872 0.995155C20.5402 1.03005 20.5058 1.07911 20.489 1.13504L20.3865 1.48231C19.6276 4.05603 14.8885 20.1283 13.4931 24.8421C12.3315 20.3337 7.54271 1.35952 7.49056 1.14686C7.47535 1.08814 7.44104 1.03611 7.39299 0.998916C7.34495 0.961717 7.28589 0.941449 7.22506 0.941283H0.968861C0.926968 0.940907 0.885527 0.950078 0.847721 0.968097C0.809926 0.986116 0.776758 1.01251 0.750751 1.04525C0.723433 1.07746 0.704227 1.1157 0.694752 1.15681C0.685265 1.19791 0.685762 1.24068 0.696217 1.28154L9.75693 32.902C9.77332 32.9584 9.80757 33.008 9.85457 33.0433C9.90158 33.0787 9.95882 33.0979 10.0177 33.0982H16.9377C16.9966 33.0979 17.0538 33.0787 17.1008 33.0433C17.1478 33.008 17.1821 32.9584 17.1985 32.902L24.5025 7.38258L31.8042 32.902C31.821 32.9586 31.8557 33.0082 31.9031 33.0436C31.9505 33.0789 32.0081 33.098 32.0673 33.0982ZM38.781 32.5547H32.2735L24.7633 6.32636C24.7469 6.26972 24.7125 6.21994 24.6652 6.1845C24.618 6.14906 24.5604 6.1299 24.5013 6.1299C24.4422 6.1299 24.3846 6.14906 24.3374 6.1845C24.2901 6.21994 24.2557 6.26972 24.2393 6.32636L16.7314 32.5547H10.224L1.31972 1.48475H7.00933C7.63756 3.97526 12.9976 25.2226 13.211 25.9314C13.2277 25.9876 13.2621 26.037 13.309 26.0723C13.3559 26.1076 13.413 26.127 13.4718 26.1276C13.5308 26.1267 13.588 26.1073 13.6353 26.0721C13.6825 26.0368 13.7174 25.9876 13.7349 25.9314C14.4184 23.637 18.1475 10.9964 19.9859 4.76471L20.9536 1.48475H28.049C28.6891 3.64445 34.4048 23.0345 35.2582 25.9314C35.2749 25.9876 35.3093 26.037 35.3562 26.0723C35.4032 26.1076 35.4602 26.127 35.519 26.1276C35.5781 26.1271 35.6355 26.1078 35.6828 26.0725C35.7302 26.0372 35.765 25.9878 35.7822 25.9314C36.0026 25.2131 41.3627 3.97526 41.9838 1.48475H47.6734L38.781 32.5547Z" fill="white"/>
<path d="M115.143 1.22483H108.239V32.8288H129.71V27.706H115.143V1.22483Z" fill="white"/>
<path d="M134.499 1.22483H141.4V32.8312H134.499V1.22483Z" fill="white"/>
<path fill-rule="evenodd" clip-rule="evenodd" d="M161.046 1.22483H147.014V32.8288H153.915V19.4004H161.238C168.789 19.4004 173.07 16.7066 173.07 10.2866C173.07 2.78436 164.946 1.22483 161.046 1.22483ZM166.072 10.2866C166.072 13.0276 164.908 14.2776 160.541 14.2776H153.903V6.39016H160.245C165.069 6.39016 166.072 8.37028 166.072 10.2866Z" fill="white"/>
<path d="M58.7658 19.3578V27.706H74.6706V32.8288H51.3646V1.22483H74.7133V6.34763H58.7658V14.2776H74.6967V19.3578H58.7658Z" fill="white"/>
<path d="M213.127 27.706V19.3578H229.056V14.2776H213.127V6.34763H229.075V1.22483H205.726V32.8288H229.03V27.706H213.127Z" fill="white"/>
<path d="M199.266 17.2572C197.58 15.778 195.091 14.8447 191.869 14.4879L188.882 14.1122C184.762 13.6396 183.347 12.6448 183.323 10.2866C183.292 7.46528 185.639 6.34763 190.165 6.34763H199.802L199.773 1.21302H189.473C183.048 1.21302 176.18 3.22622 176.18 10.2819C176.18 13.3537 177.325 15.7166 179.535 17.2477C181.009 18.2945 182.956 18.949 185.371 19.2397L188.595 19.6579C193.147 20.1305 194.726 21.3119 194.726 23.5165C194.726 26.3308 192.531 27.7178 188.256 27.7178H177.119V32.8264H176.645C178.071 32.8264 179.719 32.8324 181.496 32.8389C183.577 32.8465 185.835 32.8548 188.124 32.8548C192.137 32.8548 195.276 32.4862 197.725 30.9644C200.499 29.249 201.902 26.7372 201.902 23.5071C201.902 20.8795 201.018 18.7789 199.266 17.2572Z" fill="white"/>
</svg>
